<?xml version="1.0" standalone="no"?>
<!DOCTYPE svg PUBLIC "-//W3C//DTD SVG 20010904//EN"
 "http://www.w3.org/TR/2001/REC-SVG-20010904/DTD/svg10.dtd">
<svg version="1.0" xmlns="http://www.w3.org/2000/svg"
 width="1538.000000pt" height="1352.000000pt" viewBox="0 0 1538.000000 1352.000000"
 preserveAspectRatio="xMidYMid meet">
<metadata>
Created by potrace 1.16, written by Peter Selinger 2001-2019
</metadata>
<g transform="translate(0.000000,1352.000000) scale(0.100000,-0.100000)"
fill="#000000" stroke="none">
<path d="M2705 1528 c-25 -69 -33 -98 -27 -98 4 0 2 -4 -4 -8 -5 -4 -53 -128
-106 -277 -53 -148 -99 -278 -103 -287 -6 -16 1 -18 72 -18 l79 0 23 75 23 75
114 0 113 0 28 -75 28 -75 77 0 77 0 -55 158 c-31 86 -78 220 -106 297 -28 77
-58 163 -67 190 l-18 50 -72 3 c-51 2 -73 -1 -76 -10z"/>
<path d="M4862 1528 c-36 -12 -100 -65 -104 -88 -2 -8 -7 -18 -12 -22 -15 -10
-19 -113 -7 -151 18 -53 76 -99 179 -142 50 -20 98 -46 107 -55 22 -25 15 -59
-17 -83 -37 -27 -102 -16 -169 29 -29 19 -53 33 -53 32 -1 -2 -22 -27 -46 -57
l-44 -54 24 -20 c14 -11 54 -34 90 -50 56 -27 75 -31 145 -30 89 0 139 19 187
70 35 37 48 73 48 133 0 102 -40 149 -178 211 -130 58 -158 92 -112 134 16 14
29 16 72 11 29 -4 59 -7 66 -8 6 -1 12 -5 12 -9 0 -3 12 -14 26 -24 29 -19 24
-22 81 59 l28 39 -33 27 c-64 53 -202 76 -290 48z"/>
<path d="M5335 1203 c-66 -185 -121 -342 -123 -350 -3 -10 14 -13 72 -13 l75
0 19 53 c11 28 23 62 26 75 7 21 12 22 120 22 l112 0 24 -67 c13 -38 28 -71
34 -75 6 -4 42 -8 80 -8 l68 0 -7 28 c-3 15 -21 68 -40 117 -18 50 -70 195
-115 323 l-83 232 -71 0 -71 0 -120 -337z"/>
<path d="M9602 1514 c-72 -36 -106 -93 -105 -179 1 -107 37 -148 186 -211 90
-37 133 -74 121 -103 -3 -9 -7 -21 -7 -27 0 -6 -5 -11 -11 -12 -6 0 -27 -4
-48 -7 -28 -6 -48 -2 -90 19 -29 14 -63 32 -74 41 -21 15 -23 14 -63 -36 -22
-28 -41 -55 -41 -60 0 -16 81 -68 128 -83 203 -64 356 18 356 190 -1 104 -41
149 -194 213 -90 39 -110 55 -110 92 0 34 24 49 75 49 35 0 108 -30 120 -50
12 -19 23 -10 64 48 l41 57 -27 23 c-81 65 -229 82 -321 36z"/>
<path d="M3150 1185 l0 -345 210 0 210 0 0 70 0 70 -135 0 -135 0 0 275 0 275
-75 0 -75 0 0 -345z"/>
<path d="M3630 1185 l0 -345 225 0 225 0 0 70 0 70 -150 0 -150 0 0 70 0 70
130 0 130 0 0 70 0 70 -130 0 -130 0 0 70 0 70 150 0 150 0 0 65 0 65 -225 0
-225 0 0 -345z"/>
<path d="M4160 1185 l0 -345 75 0 75 0 0 103 c1 98 2 103 30 136 16 19 31 33
33 30 2 -2 39 -64 83 -136 l79 -133 88 0 c51 0 87 4 87 10 0 6 -5 10 -12 10
-6 0 -9 3 -5 6 7 7 -149 265 -167 276 -6 4 -8 8 -3 8 4 0 -5 19 -19 42 -31 49
-38 36 90 196 51 65 96 123 100 130 5 9 -13 12 -82 12 l-90 0 -103 -136 -104
-137 -3 137 -3 136 -74 0 -75 0 0 -345z"/>
<path d="M5890 1185 l0 -345 75 0 76 0 -1 191 c-1 105 0 193 2 195 3 2 62 -84
132 -191 l128 -195 64 0 64 0 0 345 0 345 -75 0 -75 0 0 -187 0 -188 -123 187
-122 188 -72 0 -73 0 0 -345z"/>
<path d="M6490 1460 l0 -70 85 0 85 0 0 -275 0 -275 75 0 76 0 -3 275 -3 275
88 0 87 0 0 70 0 70 -245 0 -245 0 0 -70z"/>
<path d="M7040 1185 l0 -345 230 0 230 0 0 70 0 70 -155 0 -155 0 0 70 0 70
135 0 135 0 0 70 0 70 -135 0 -135 0 0 70 0 70 150 0 150 0 0 65 0 65 -225 0
-225 0 0 -345z"/>
<path d="M7570 1186 l0 -346 75 0 75 0 0 116 0 115 41 -3 c41 -3 42 -3 101
-108 32 -57 65 -108 71 -112 14 -9 167 -11 167 -2 0 3 -26 51 -59 107 -91 158
-86 142 -47 167 21 12 45 41 60 72 55 111 22 250 -72 306 -46 26 -51 27 -229
30 l-183 4 0 -346z m279 204 c71 -20 98 -73 69 -135 -17 -38 -58 -55 -133 -55
l-65 0 0 100 0 100 48 0 c26 0 62 -4 81 -10z"/>
<path d="M8160 1185 l0 -345 75 0 75 0 0 345 0 345 -75 0 -75 0 0 -345z"/>
<path d="M8620 1185 l0 -345 75 0 75 0 0 345 0 345 -75 0 -75 0 0 -345z"/>
<path d="M8880 1185 l0 -345 70 0 71 0 -3 200 c-2 110 -1 200 2 200 3 0 64
-90 135 -200 l130 -200 63 0 62 0 0 345 0 345 -70 0 -70 0 0 -192 0 -193 -126
193 -126 192 -69 0 -69 0 0 -345z"/>
<path d="M9990 1460 l0 -70 85 0 85 0 0 -275 0 -275 75 0 75 0 0 278 0 277 85
-3 85 -3 0 70 0 71 -245 0 -245 0 0 -70z"/>
<path d="M10540 1185 l0 -345 75 0 75 0 0 345 0 345 -75 0 -75 0 0 -345z"/>
<path d="M10760 1460 l0 -70 85 0 85 0 0 -275 0 -275 75 0 75 0 0 275 0 275
85 0 85 0 0 70 0 70 -245 0 -245 0 0 -70z"/>
<path d="M11302 1278 c4 -239 5 -256 27 -306 45 -100 142 -150 269 -139 92 9
156 47 196 118 l31 54 3 263 3 262 -75 0 -76 0 0 -232 c0 -202 -2 -238 -18
-268 -36 -73 -140 -76 -183 -6 -17 28 -19 54 -19 269 l0 237 -81 0 -81 0 4
-252z"/>
<path d="M11880 1460 l0 -70 90 0 90 0 0 -275 0 -275 75 0 75 0 0 275 0 275
85 0 85 0 0 70 0 70 -250 0 -250 0 0 -70z"/>
<path d="M12440 1185 l0 -345 225 0 225 0 0 70 0 70 -150 0 -150 0 0 70 0 70
130 0 130 0 0 70 0 70 -130 0 -130 0 0 70 0 70 150 0 150 0 0 65 0 65 -225 0
-225 0 0 -345z"/>
</g>
</svg>
