<?xml version="1.0" standalone="no"?>
<!DOCTYPE svg PUBLIC "-//W3C//DTD SVG 20010904//EN"
 "http://www.w3.org/TR/2001/REC-SVG-20010904/DTD/svg10.dtd">
<svg version="1.0" xmlns="http://www.w3.org/2000/svg"
 width="200.000000pt" height="200.000000pt" viewBox="0 0 200.000000 200.000000"
 preserveAspectRatio="xMidYMid meet">
<metadata>
Created by potrace 1.16, written by Peter Selinger 2001-2019
</metadata>
<g transform="translate(0.000000,200.000000) scale(0.100000,-0.100000)"
fill="#000000" stroke="none">
<path d="M930 1705 l0 -75 75 0 75 0 0 75 0 75 -75 0 -75 0 0 -75z"/>
<path d="M1031 1484 c35 -39 43 -77 24 -113 -29 -57 -91 -53 -175 10 -30 23
-72 50 -95 60 -48 22 -124 24 -151 4 -17 -13 -17 -14 -2 -15 30 0 70 -45 107
-121 28 -58 44 -78 73 -94 21 -11 38 -23 38 -27 0 -15 -101 -8 -133 8 -18 9
-58 41 -89 71 -80 75 -146 98 -226 77 -21 -6 -20 -8 17 -24 51 -23 77 -61 61
-89 -15 -29 -44 -26 -83 9 -64 56 -142 80 -205 64 -27 -8 -29 -24 -4 -24 35 0
93 -64 140 -155 61 -116 84 -130 203 -130 100 0 124 -13 135 -74 14 -75 44
-107 118 -125 35 -9 28 -16 -23 -26 -52 -9 -133 4 -182 29 -43 23 -45 19 -27
-41 17 -58 79 -123 135 -142 54 -18 131 -21 187 -5 52 14 81 5 96 -30 20 -50
48 -61 154 -61 91 0 96 -1 146 -35 l53 -36 -6 46 c-8 52 -52 123 -94 150 -46
29 -83 68 -83 87 0 15 4 15 36 -7 20 -13 52 -27 73 -30 77 -12 144 -35 177
-60 27 -20 34 -23 34 -10 0 37 -32 85 -89 135 -34 29 -60 55 -58 57 2 2 18 -4
36 -13 26 -13 47 -15 95 -9 105 13 124 11 154 -17 22 -22 31 -24 52 -16 39 15
125 11 159 -7 43 -22 39 -3 -9 49 -28 30 -72 59 -145 95 -109 53 -136 79 -150
143 -5 23 -12 28 -35 28 -69 0 -110 49 -129 152 -30 164 -133 268 -284 285
l-52 6 26 -29z m49 -489 l0 -75 -75 0 -75 0 0 75 0 75 75 0 75 0 0 -75z"/>
<path d="M930 290 l0 -80 75 0 75 0 0 80 0 80 -75 0 -75 0 0 -80z"/>
</g>
</svg>
