<?xml version="1.0" standalone="no"?>
<!DOCTYPE svg PUBLIC "-//W3C//DTD SVG 20010904//EN"
 "http://www.w3.org/TR/2001/REC-SVG-20010904/DTD/svg10.dtd">
<svg version="1.0" xmlns="http://www.w3.org/2000/svg"
 width="2062.000000pt" height="2891.000000pt" viewBox="0 0 2062.000000 2891.000000"
 preserveAspectRatio="xMidYMid meet">
<metadata>
Created by potrace 1.16, written by Peter Selinger 2001-2019
</metadata>
<g transform="translate(0.000000,2891.000000) scale(0.100000,-0.100000)"
fill="#000000" stroke="none">
<path d="M800 28904 c0 -4 25 -39 56 -78 l55 -71 -53 58 c-29 31 -56 57 -59
57 -15 0 11 -122 32 -152 18 -25 19 -30 5 -18 -18 14 -19 13 -12 -24 20 -104
82 -289 130 -385 29 -58 106 -225 171 -371 139 -314 177 -390 253 -502 31 -46
123 -180 203 -298 747 -1095 1600 -2564 2289 -3939 l72 -144 -190 -281 c-104
-155 -231 -351 -282 -436 -182 -302 -252 -489 -183 -490 10 0 96 80 199 186
111 114 187 185 195 182 9 -3 13 -17 11 -37 -1 -17 0 -31 2 -31 2 0 50 78 107
173 56 94 143 234 192 311 l91 138 38 -76 c21 -42 41 -76 44 -76 3 0 20 16 38
36 30 32 35 35 54 23 24 -15 88 -110 130 -194 45 -91 93 -227 176 -496 87
-279 124 -382 191 -526 l48 -103 51 0 52 0 102 -327 c56 -181 132 -438 171
-573 56 -200 86 -286 166 -470 125 -290 488 -1188 621 -1533 56 -148 105 -271
108 -274 3 -3 12 0 21 7 8 7 22 10 30 6 41 -15 158 -357 290 -846 49 -178 105
-365 124 -415 34 -83 40 -92 79 -110 49 -23 50 -27 113 -290 63 -262 75 -301
242 -755 85 -234 159 -437 162 -452 7 -27 4 -29 -185 -122 -423 -209 -819
-336 -1221 -391 -163 -22 -478 -30 -629 -16 -230 22 -456 77 -654 158 -634
258 -1096 713 -1461 1438 -204 404 -362 882 -490 1475 -20 91 -49 227 -65 302
-80 369 -136 797 -156 1186 -4 73 -11 129 -15 125 -5 -5 -51 -137 -104 -293
-52 -157 -95 -276 -95 -264 0 44 32 352 70 664 22 179 42 368 45 420 3 52 13
178 21 280 9 102 14 251 13 331 -4 127 -7 150 -23 168 -38 42 -84 22 -177 -76
-64 -68 -270 -343 -342 -455 -20 -31 -49 -64 -65 -72 -26 -13 -34 -13 -79 1
-85 27 -133 -1 -188 -110 l-27 -52 7 45 c16 97 97 440 150 632 30 110 53 203
51 206 -17 16 -39 -19 -66 -104 -37 -115 -56 -196 -115 -484 -47 -225 -79
-345 -95 -355 -5 -3 -14 3 -19 14 -8 14 -5 44 14 118 13 54 51 235 85 403 49
248 111 512 156 668 9 31 -10 28 -34 -5 -79 -113 -166 -364 -287 -833 -79
-306 -97 -364 -127 -395 -18 -20 -18 -20 -12 15 19 105 66 269 164 565 60 182
116 359 124 395 16 66 21 166 10 194 -18 46 -46 1 -104 -170 -16 -49 -30 -85
-30 -79 0 5 31 154 70 330 134 619 150 765 83 765 -38 0 -129 -115 -232 -295
-28 -49 -51 -86 -51 -83 0 15 135 329 225 523 164 355 295 643 295 650 0 24
-33 -30 -90 -144 -35 -72 -65 -129 -67 -127 -2 2 21 55 51 119 31 65 52 117
48 117 -21 0 -120 -97 -150 -147 -19 -32 -31 -49 -27 -38 4 11 9 27 12 35 8
25 -147 -138 -229 -240 -173 -217 -606 -1001 -713 -1294 -40 -108 -145 -513
-194 -746 -96 -458 -149 -832 -193 -1355 -8 -91 -12 -326 -12 -600 0 -481 10
-664 59 -1050 151 -1191 563 -2257 1199 -3105 260 -346 624 -716 966 -981 166
-128 379 -271 392 -263 6 4 8 24 4 51 -11 84 5 79 419 -135 854 -443 1279
-587 1809 -618 l120 -7 37 43 37 43 129 -12 c70 -7 247 -15 393 -18 453 -9
855 26 1285 113 204 41 602 185 919 331 78 35 146 67 153 69 15 7 16 3 208
-711 86 -319 217 -839 291 -1155 169 -719 187 -796 230 -1005 19 -93 70 -300
114 -460 121 -444 178 -670 236 -935 5 -22 -1 -18 -45 25 -68 66 -65 46 4 -32
67 -75 72 -94 9 -33 -40 39 -45 42 -39 20 15 -49 66 -155 86 -176 24 -26 25
-30 49 -244 46 -421 77 -930 85 -1415 3 -192 8 -450 11 -572 l6 -223 32 0 c31
0 69 -20 94 -50 86 -101 153 -254 283 -642 137 -411 195 -539 271 -603 34 -28
82 -33 114 -11 21 15 21 14 27 -121 4 -75 7 -218 7 -318 0 -214 16 -563 31
-655 15 -93 26 -110 98 -150 246 -135 431 -504 551 -1100 65 -323 84 -499 84
-765 0 -239 -4 -299 -56 -780 -38 -353 -43 -585 -15 -628 10 -16 24 -27 30
-24 22 7 57 84 117 252 77 218 94 244 123 188 14 -26 15 -25 21 43 25 272 93
1379 101 1649 36 1239 36 1643 5 2951 -11 480 -65 1466 -110 2043 -6 68 -10
136 -10 151 l0 28 108 6 c440 27 828 87 1247 196 1160 299 2378 888 3605 1743
108 76 620 457 685 510 l29 25 -34 20 c-59 35 -62 39 -46 71 38 72 248 242
531 429 271 179 404 280 530 403 l110 108 -18 47 c-14 39 -15 50 -5 59 7 7 94
77 194 158 443 358 708 603 873 805 375 460 726 967 990 1430 85 150 231 425
231 435 0 3 -10 7 -22 9 -15 2 -24 11 -26 26 -2 14 57 148 151 345 178 368
219 459 292 647 76 194 120 338 145 469 23 121 21 165 -9 202 -17 21 -17 26 5
133 49 241 88 605 78 716 -39 414 -114 704 -258 997 -271 549 -704 935 -1289
1147 -657 238 -1445 211 -2350 -81 -795 -256 -1703 -735 -2562 -1353 -409
-294 -490 -363 -1010 -866 -159 -154 -344 -332 -410 -396 -66 -63 -307 -276
-535 -473 -644 -557 -1072 -948 -1233 -1128 -62 -69 -66 -77 -49 -86 32 -17
45 -65 39 -135 -8 -82 -48 -206 -167 -510 -152 -389 -198 -552 -187 -666 7
-82 30 -110 99 -122 14 -2 -6 -36 -91 -153 -60 -82 -143 -203 -184 -268 l-75
-117 -31 127 c-16 71 -73 331 -126 578 -53 248 -140 639 -194 870 -55 231
-105 446 -112 477 l-12 57 144 137 c430 409 880 881 1028 1079 146 195 153
207 161 282 l7 68 127 170 c307 407 356 488 600 985 643 1310 1004 2690 1077
4110 13 247 7 826 -11 1050 -68 874 -236 1612 -526 2318 -136 331 -409 835
-556 1027 -325 423 -745 816 -1194 1117 -509 342 -1057 593 -1573 722 -393 98
-650 129 -1071 130 -301 1 -426 -7 -680 -45 -175 -26 -173 -25 -166 -55 18
-69 -75 -150 -419 -364 -458 -286 -760 -526 -869 -691 -60 -91 -62 -169 -4
-193 l31 -13 -69 -38 c-118 -65 -256 -146 -342 -202 -46 -29 -87 -54 -92 -56
-5 -1 -75 102 -157 228 -235 365 -491 724 -694 975 -115 143 -369 419 -685
744 -335 345 -372 382 -380 373 -3 -3 26 -86 64 -184 69 -173 132 -342 132
-352 0 -2 -53 74 -118 170 -274 404 -381 537 -613 759 -254 244 -356 320 -427
320 -80 0 -82 -83 -11 -438 28 -142 51 -270 51 -287 -1 -21 -10 -37 -32 -55
-88 -70 -100 -86 -100 -132 0 -24 4 -59 10 -77 5 -19 8 -36 7 -38 -2 -2 -19
18 -37 45 -136 192 -383 522 -391 522 -5 0 -9 -11 -9 -24 0 -26 63 -116 220
-316 116 -147 210 -287 210 -312 0 -36 -37 -20 -66 30 -61 103 -141 207 -353
456 -80 94 -163 192 -183 216 l-38 45 0 -30 c0 -53 62 -162 253 -446 175 -261
257 -399 257 -434 0 -50 -47 19 -205 304 -154 278 -247 404 -317 430 -25 9
-58 6 -58 -6 0 -10 35 -72 73 -128 34 -51 17 -36 -108 93 -236 244 -401 372
-479 372 -30 0 -37 -4 -42 -26 -9 -36 18 -127 72 -242 25 -53 41 -92 36 -87
-5 6 -71 97 -146 202 -228 321 -416 545 -416 497z m7760 -3389 c608 -93 1116
-400 1489 -902 314 -422 538 -968 646 -1573 15 -80 37 -194 50 -255 58 -269
84 -511 92 -875 13 -601 -60 -1196 -229 -1855 -256 -1006 -750 -2043 -1371
-2879 l-111 -149 -12 39 c-7 21 -67 219 -134 439 -210 690 -522 1612 -800
2365 -628 1702 -1424 3537 -2031 4681 -60 113 -109 208 -109 212 0 8 208 140
353 224 522 301 1081 492 1587 542 130 13 452 5 580 -14z m9538 -9222 c65 -41
76 -114 42 -300 -124 -688 -690 -1660 -1507 -2588 -413 -468 -873 -909 -1386
-1328 -109 -89 -221 -181 -250 -205 -80 -67 -613 -465 -787 -589 -455 -323
-872 -596 -1494 -978 -160 -97 -349 -216 -420 -264 -271 -181 -580 -364 -778
-462 -49 -24 -88 -46 -88 -50 0 -7 209 -19 370 -20 l115 -1 -60 -19 c-33 -11
-204 -55 -380 -98 -176 -44 -351 -91 -390 -105 -116 -42 -287 -88 -295 -79 -4
4 -12 58 -19 118 -6 61 -32 272 -57 471 l-44 361 35 124 c178 619 696 1471
1405 2308 291 344 779 847 1125 1162 870 787 1746 1404 2612 1838 111 55 233
119 270 142 95 59 373 196 529 263 424 180 826 289 1164 316 123 10 258 2 288
-17z"/>
<path d="M5135 11445 c-131 -15 -273 -38 -376 -61 -61 -14 -66 -17 -61 -39 4
-21 -1 -25 -49 -39 -30 -9 -138 -34 -242 -56 -354 -77 -510 -132 -523 -185 -8
-31 -12 -33 -165 -90 -142 -53 -188 -77 -354 -188 -658 -439 -1178 -1012
-1485 -1632 -210 -427 -303 -797 -303 -1215 0 -372 76 -674 273 -1085 26 -55
71 -153 100 -217 86 -193 225 -431 348 -593 72 -95 183 -225 193 -225 5 0 12
14 17 32 4 17 13 33 19 35 17 6 161 -126 298 -272 163 -175 277 -272 384 -328
l88 -47 22 24 22 24 132 -80 c138 -84 359 -198 468 -243 74 -30 277 -67 461
-85 163 -16 612 -8 758 14 176 26 168 23 163 50 -3 16 1 25 13 30 10 4 114 22
232 42 407 66 544 105 572 163 14 29 26 35 170 81 122 39 182 65 280 121 986
563 1706 1448 1904 2339 48 217 58 334 53 580 -5 259 -15 325 -86 580 -27 96
-59 218 -71 270 -55 237 -185 573 -306 794 -68 123 -180 293 -263 401 -88 114
-252 296 -261 290 -4 -3 -11 -21 -14 -40 -4 -19 -10 -35 -14 -35 -25 0 -144
100 -357 301 -177 167 -275 238 -384 279 l-61 22 -19 -23 c-20 -24 -20 -24
-53 -5 -183 103 -421 215 -567 265 -114 39 -246 53 -551 56 -198 3 -322 0
-405 -10z m505 -1950 c341 -52 613 -171 847 -370 130 -111 241 -242 323 -381
53 -89 155 -323 165 -377 17 -89 -47 -305 -151 -514 -40 -79 -70 -143 -68
-143 1 0 52 26 111 57 83 43 103 51 87 32 -12 -13 -76 -85 -143 -159 -67 -74
-134 -153 -149 -175 -88 -131 -102 -145 -231 -221 -832 -495 -1822 -578 -2494
-210 -260 142 -513 401 -646 661 -44 87 -126 301 -136 358 -19 99 74 359 209
582 19 32 34 60 32 62 -2 2 -43 -15 -92 -37 -84 -39 -87 -40 -64 -14 48 51
246 217 340 284 288 206 636 375 979 474 138 40 397 91 536 105 122 13 417 5
545 -14z"/>
</g>
</svg>
