<?xml version="1.0" standalone="no"?>
<!DOCTYPE svg PUBLIC "-//W3C//DTD SVG 20010904//EN"
 "http://www.w3.org/TR/2001/REC-SVG-20010904/DTD/svg10.dtd">
<svg version="1.0" xmlns="http://www.w3.org/2000/svg"
 width="800.000000pt" height="248.000000pt" viewBox="0 0 800.000000 248.000000"
 preserveAspectRatio="xMidYMid meet">
<metadata>
Created by potrace 1.16, written by Peter Selinger 2001-2019
</metadata>
<g transform="translate(0.000000,248.000000) scale(0.100000,-0.100000)"
fill="#000000" stroke="none">
<path d="M762 2006 c-161 -60 -294 -195 -353 -359 -20 -55 -23 -86 -27 -265
l-4 -203 54 3 53 3 5 195 5 195 37 77 c59 124 170 224 286 259 l42 12 0 54 c0
63 -3 64 -98 29z"/>
<path d="M592 1238 l3 -53 133 -3 132 -3 0 56 0 55 -136 0 -135 0 3 -52z"/>
<path d="M972 1048 l3 -243 50 0 50 0 3 187 2 187 133 3 132 3 3 53 3 52 -191
0 -190 0 2 -242z"/>
<path d="M1459 1283 c0 -5 0 -80 1 -168 2 -261 -30 -367 -151 -488 -79 -79
-159 -120 -269 -138 l-71 -12 3 -51 3 -51 45 3 c194 13 390 143 475 314 58
119 65 158 65 391 l0 207 -50 0 c-27 0 -50 -3 -51 -7z"/>
<path d="M1780 1255 l0 -35 80 0 80 0 2 -207 3 -207 35 -1 35 0 3 208 2 207
80 0 80 0 0 35 0 35 -200 0 -200 0 0 -35z"/>
<path d="M5562 1048 l3 -242 28 1 c15 1 32 1 37 2 6 1 10 88 10 241 l0 240
-40 0 -40 0 2 -242z"/>
<path d="M7078 1198 c-3 -39 -6 -43 -30 -46 -24 -3 -28 -8 -28 -33 0 -26 3
-29 30 -29 l30 0 0 -114 c0 -63 3 -122 6 -131 14 -36 110 -60 131 -32 19 25 9
52 -20 55 -38 5 -48 36 -45 136 l3 81 33 3 c28 3 32 7 32 32 0 25 -4 29 -32
32 -31 3 -33 6 -36 46 -3 41 -4 42 -37 42 -33 0 -34 -1 -37 -42z"/>
<path d="M2193 1140 c-35 -21 -53 -48 -53 -79 0 -17 6 -21 33 -21 25 0 36 6
49 30 14 25 23 30 56 30 43 0 57 -11 67 -51 6 -25 5 -25 -68 -37 -93 -14 -125
-28 -143 -63 -17 -34 -18 -60 -2 -94 25 -55 123 -73 186 -35 40 24 39 24 45 1
3 -13 12 -18 23 -16 11 2 24 4 29 4 6 1 9 50 6 133 -3 147 -13 178 -61 203
-42 22 -128 19 -167 -5z"/>
<path d="M2593 1141 c-28 -17 -33 -18 -33 -5 0 11 -9 14 -37 12 l-38 -3 -2
-167 -2 -166 24 -6 c49 -12 55 -1 55 98 0 107 12 160 43 181 30 21 44 19 72
-10 24 -23 25 -30 25 -145 0 -99 3 -120 15 -121 65 -5 60 -14 62 106 3 135 7
151 38 171 21 14 30 14 55 4 37 -15 39 -25 43 -169 l2 -115 35 0 35 -1 3 128
c2 103 -1 135 -14 163 -31 66 -112 84 -179 38 l-38 -25 -23 22 c-33 31 -100
36 -141 10z"/>
<path d="M3190 1153 c-8 -3 -25 -15 -37 -26 l-23 -20 0 21 c0 19 -6 22 -40 22
l-40 0 0 -235 0 -235 40 0 40 0 0 80 0 80 33 -20 c66 -40 158 -16 193 52 26
49 25 162 -2 212 -30 59 -105 90 -164 69z m69 -72 c27 -27 43 -93 35 -138 -14
-73 -85 -107 -132 -63 -28 26 -36 58 -30 122 4 40 12 57 32 75 33 28 69 30 95
4z"/>
<path d="M3490 1142 c-53 -29 -80 -84 -80 -162 0 -116 60 -183 164 -183 58 0
105 20 135 59 31 40 27 54 -15 54 -26 0 -41 -7 -55 -24 -48 -60 -128 -34 -154
51 -6 22 -5 22 122 25 l128 3 -3 45 c-6 89 -59 142 -149 147 -44 3 -67 -1 -93
-15z"/>
<path d="M3923 1152 c-13 -4 -32 -15 -44 -25 -20 -18 -21 -18 -26 2 -4 16 -13
21 -39 21 l-34 0 2 -172 3 -173 35 0 35 0 5 110 c3 62 11 120 18 133 8 14 30
27 58 34 42 12 45 14 42 43 -3 31 -17 38 -55 27z"/>
<path d="M4070 1138 c-55 -38 -74 -71 -78 -143 -9 -139 80 -222 210 -194 48
11 108 62 108 94 0 24 -67 20 -80 -4 -14 -27 -70 -44 -103 -32 -31 12 -57 48
-57 78 0 23 2 23 125 23 l125 0 0 33 c0 46 -39 118 -79 144 -47 32 -125 32
-171 1z"/>
<path d="M4435 1144 c-51 -26 -79 -77 -83 -153 -6 -121 55 -194 162 -194 58 0
105 20 135 59 31 39 27 54 -14 54 -27 0 -42 -7 -59 -27 -46 -53 -124 -29 -145
45 l-9 31 126 3 127 3 -2 43 c-2 50 -26 96 -65 125 -36 27 -131 33 -173 11z"/>
<path d="M4838 1141 c-31 -17 -38 -18 -38 -6 0 11 -11 15 -40 15 l-40 0 2
-172 3 -173 30 1 c17 1 33 2 37 3 3 1 8 55 10 121 3 104 6 122 23 139 34 34
70 37 99 7 25 -24 26 -30 26 -144 l0 -120 33 -5 c17 -2 35 -3 40 0 4 2 7 58 7
124 0 127 -10 169 -48 203 -32 28 -99 31 -144 7z"/>
<path d="M5920 1142 c-70 -35 -105 -131 -81 -222 21 -79 81 -123 167 -123 101
0 164 69 164 179 0 114 -64 184 -166 184 -27 0 -65 -8 -84 -18z m121 -52 c54
-29 66 -155 19 -205 -31 -33 -82 -34 -115 -1 -63 63 -26 215 53 216 13 0 32
-5 43 -10z"/>
<path d="M6332 1141 c-38 -24 -43 -25 -39 -8 1 7 -12 13 -35 15 l-38 3 0 -235
0 -236 40 0 40 0 0 81 0 80 26 -20 c33 -26 104 -28 145 -4 43 25 69 87 69 161
0 111 -44 172 -127 179 -36 3 -56 -1 -81 -16z m94 -65 c24 -20 28 -33 32 -88
4 -58 2 -67 -23 -96 -47 -56 -115 -36 -135 39 -32 118 50 211 126 145z"/>
<path d="M6783 1145 c-62 -27 -79 -109 -31 -151 11 -11 54 -30 97 -44 68 -22
76 -28 76 -50 0 -56 -96 -62 -123 -7 -10 22 -20 27 -48 27 -29 0 -34 -3 -34
-24 0 -40 44 -83 98 -95 101 -21 192 27 192 104 0 49 -27 74 -114 104 -86 29
-109 49 -86 76 9 11 26 15 54 13 33 -2 43 -8 54 -30 10 -21 20 -28 43 -28 16
0 32 6 35 14 9 22 -23 74 -56 91 -36 19 -114 19 -157 0z"/>
<path d="M7319 1138 c-20 -11 -47 -38 -59 -60 -30 -53 -26 -172 6 -215 49 -66
155 -87 226 -46 115 67 114 267 -2 325 -48 25 -126 23 -171 -4z m140 -62 c49
-52 48 -166 -3 -201 -32 -23 -79 -19 -106 10 -28 30 -39 110 -20 155 25 61 89
79 129 36z"/>
<path d="M5205 1133 c37 -93 115 -317 115 -333 0 -29 -35 -60 -70 -60 -27 0
-30 -3 -30 -30 0 -29 2 -30 45 -30 57 0 91 16 115 54 10 17 48 110 83 206 36
96 68 183 72 193 7 16 3 18 -35 15 l-43 -3 -40 -117 c-22 -65 -43 -118 -46
-118 -4 0 -25 54 -46 120 l-39 120 -44 0 c-38 0 -43 -2 -37 -17z"/>
<path d="M5712 979 c3 -163 4 -172 23 -175 11 -2 28 -1 38 2 16 5 17 20 15
172 l-3 167 -38 3 -37 3 2 -172z"/>
<path d="M6592 978 l3 -173 25 -1 c50 -1 50 -2 50 177 l0 169 -40 0 -40 0 2
-172z"/>
</g>
</svg>
