<?xml version="1.0" standalone="no"?>
<!DOCTYPE svg PUBLIC "-//W3C//DTD SVG 20010904//EN"
 "http://www.w3.org/TR/2001/REC-SVG-20010904/DTD/svg10.dtd">
<svg version="1.0" xmlns="http://www.w3.org/2000/svg"
 width="302.000000pt" height="387.000000pt" viewBox="0 0 302.000000 387.000000"
 preserveAspectRatio="xMidYMid meet">
<metadata>
Created by potrace 1.16, written by Peter Selinger 2001-2019
</metadata>
<g transform="translate(0.000000,387.000000) scale(0.100000,-0.100000)"
fill="#000000" stroke="none">
<path d="M0 1935 l0 -1935 1510 0 1510 0 0 1935 0 1935 -1510 0 -1510 0 0
-1935z m1330 1357 l0 -98 -72 -23 c-218 -69 -413 -239 -509 -445 -69 -147 -72
-170 -77 -518 l-3 -318 -101 0 -100 0 5 323 c4 313 5 325 31 417 85 303 292
551 565 678 75 35 210 80 244 81 15 1 17 -10 17 -97z m-2 -1304 l3 -98 -241 0
-240 0 0 100 0 100 238 -2 237 -3 3 -97z m850 0 l3 -98 -236 0 -235 0 0 -330
0 -330 -100 0 -100 0 0 430 0 430 333 -2 332 -3 3 -97z m380 -188 c4 -422 -14
-543 -113 -745 -154 -316 -444 -524 -800 -575 -38 -5 -85 -10 -102 -10 l-33 0
0 99 0 98 75 7 c166 15 348 91 472 198 130 112 218 250 270 423 26 89 27 94
31 443 l4 353 96 -3 97 -3 3 -285z"/>
</g>
</svg>
